<svg width="387" height="269" viewBox="0 0 387 269" fill="none" xmlns="http://www.w3.org/2000/svg">
<g clip-path="url(#clip0)">
<path d="M180.957 118.498C180.957 170.65 149.953 188.86 111.708 188.86C73.4632 188.86 42.4595 170.65 42.4595 118.498C42.4595 66.3459 111.708 0 111.708 0C111.708 0 180.957 66.3459 180.957 118.498Z" fill="#F2F2F2"/>
<path d="M109.185 180.882L109.895 137.236L139.41 83.2384L110.006 130.389L110.325 110.763L130.667 71.697L110.409 105.57L110.982 70.2728L132.765 39.171L111.073 64.7223L111.431 0L109.179 85.6807L109.364 82.146L87.2178 48.2472L109.009 88.9312L106.946 128.352L106.884 127.306L81.353 91.6322L106.807 131.002L106.549 135.932L106.503 136.006L106.524 136.411L101.289 236.425H108.283L109.123 184.766L134.514 145.492L109.185 180.882Z" fill="#3F3D56"/>
<path d="M387 139.858C387 182.547 361.622 197.453 330.317 197.453C299.011 197.453 273.633 182.547 273.633 139.858C273.633 97.1691 330.317 42.8618 330.317 42.8618C330.317 42.8618 387 97.1691 387 139.858Z" fill="#F2F2F2"/>
<path d="M328.252 190.923L328.832 155.196L352.992 110.997L328.923 149.591L329.184 133.527L345.835 101.549L329.254 129.276L329.723 100.383L347.553 74.9251L329.796 95.8404L330.09 42.8618L328.247 112.995L328.398 110.102L310.27 82.3543L328.108 115.656L326.418 147.924L326.368 147.068L305.47 117.867L326.305 150.093L326.094 154.129L326.056 154.189L326.073 154.521L321.788 236.387H327.513L328.2 194.101L348.984 161.954L328.252 190.923Z" fill="#3F3D56"/>
<path d="M191.53 244.687C297.309 244.687 383.06 240.353 383.06 235.005C383.06 229.658 297.309 225.324 191.53 225.324C85.751 225.324 0 229.658 0 235.005C0 240.353 85.751 244.687 191.53 244.687Z" fill="#3F3D56"/>
<path d="M308.209 252.66C326.326 252.66 341.013 251.917 341.013 251.002C341.013 250.086 326.326 249.343 308.209 249.343C290.091 249.343 275.404 250.086 275.404 251.002C275.404 251.917 290.091 252.66 308.209 252.66Z" fill="#3F3D56"/>
<path d="M189.502 268.656C207.619 268.656 222.306 267.913 222.306 266.997C222.306 266.082 207.619 265.339 189.502 265.339C171.384 265.339 156.697 266.082 156.697 266.997C156.697 267.913 171.384 268.656 189.502 268.656Z" fill="#3F3D56"/>
<path d="M99.4427 257.374C140.835 257.374 174.389 255.678 174.389 253.585C174.389 251.493 140.835 249.797 99.4427 249.797C58.0508 249.797 24.4961 251.493 24.4961 253.585C24.4961 255.678 58.0508 257.374 99.4427 257.374Z" fill="#3F3D56"/>
<path d="M33.528 222.846C48.5959 222.846 60.8109 210.631 60.8109 195.563C60.8109 180.495 48.5959 168.28 33.528 168.28C18.4601 168.28 6.24512 180.495 6.24512 195.563C6.24512 210.631 18.4601 222.846 33.528 222.846Z" fill="#2F2E41"/>
<path d="M29.1321 216.925L20.8442 216.827L20.6693 231.676L28.9572 231.774L29.1321 216.925Z" fill="#2F2E41"/>
<path d="M45.7078 217.12L37.4199 217.022L37.245 231.871L45.5329 231.969L45.7078 217.12Z" fill="#2F2E41"/>
<path d="M34.4804 232.012C34.4973 230.581 31.4187 229.385 27.6043 229.34C23.7899 229.295 20.6841 230.418 20.6672 231.849C20.6504 233.279 23.7289 234.475 27.5433 234.52C31.3577 234.565 34.4635 233.442 34.4804 232.012Z" fill="#2F2E41"/>
<path d="M51.06 231.861C51.0768 230.431 47.9983 229.235 44.1839 229.19C40.3695 229.145 37.2637 230.268 37.2468 231.699C37.23 233.129 40.3085 234.325 44.1229 234.37C47.9373 234.415 51.0431 233.292 51.06 231.861Z" fill="#2F2E41"/>
<path d="M34.3001 197.989C39.4499 197.989 43.6247 193.814 43.6247 188.665C43.6247 183.515 39.4499 179.34 34.3001 179.34C29.1503 179.34 24.9756 183.515 24.9756 188.665C24.9756 193.814 29.1503 197.989 34.3001 197.989Z" fill="white"/>
<path d="M34.3001 191.773C36.0167 191.773 37.4082 190.381 37.4082 188.665C37.4082 186.948 36.0167 185.556 34.3001 185.556C32.5835 185.556 31.1919 186.948 31.1919 188.665C31.1919 190.381 32.5835 191.773 34.3001 191.773Z" fill="#3F3D56"/>
<path d="M7.36344 169.881C5.27687 159.99 12.4358 150.104 23.3535 147.801C34.2711 145.498 44.8131 151.649 46.8996 161.54C48.9862 171.432 41.7268 174.985 30.8092 177.288C19.8916 179.591 9.45002 179.772 7.36344 169.881Z" fill="#77C9FF"/>
<path d="M75.1461 210.784C75.1461 229.804 63.8393 236.445 49.8904 236.445C49.5673 236.445 49.2447 236.442 48.9226 236.435C48.2763 236.421 47.6362 236.39 47.0037 236.347C34.4151 235.456 24.6348 228.473 24.6348 210.784C24.6348 192.477 48.0285 169.377 49.7858 167.667L49.7889 167.664C49.8566 167.598 49.8904 167.566 49.8904 167.566C49.8904 167.566 75.1461 191.763 75.1461 210.784Z" fill="#77C9FF"/>
<path d="M48.9706 233.536L58.2077 220.629L48.9475 234.953L48.9229 236.435C48.2766 236.421 47.6364 236.39 47.004 236.347L47.9996 217.317L47.9919 217.169L48.0088 217.142L48.1027 215.344L38.8193 200.985L48.1319 213.996L48.1535 214.378L48.9059 200L40.9582 185.162L49.0029 197.476L49.7861 167.667L49.7892 167.566V167.664L49.6584 191.171L57.5707 181.852L49.6261 193.196L49.4168 206.069L56.8044 193.714L49.386 207.963L49.2691 215.12L59.9942 197.924L49.2291 217.617L48.9706 233.536Z" fill="#3F3D56"/>
<path d="M246.059 222.551C261.127 222.551 273.342 210.336 273.342 195.268C273.342 180.2 261.127 167.985 246.059 167.985C230.991 167.985 218.776 180.2 218.776 195.268C218.776 210.336 230.991 222.551 246.059 222.551Z" fill="#2F2E41"/>
<path d="M248.388 216.953L240.465 219.387L244.827 233.582L252.75 231.148L248.388 216.953Z" fill="#2F2E41"/>
<path d="M264.233 212.084L256.31 214.519L260.672 228.714L268.595 226.279L264.233 212.084Z" fill="#2F2E41"/>
<path d="M252.241 234.194C255.888 233.074 258.503 231.057 258.083 229.689C257.662 228.322 254.366 228.122 250.719 229.242C247.073 230.363 244.458 232.38 244.878 233.747C245.298 235.115 248.595 235.315 252.241 234.194Z" fill="#2F2E41"/>
<path d="M267.985 228.994C271.632 227.874 274.247 225.857 273.827 224.49C273.407 223.122 270.11 222.922 266.464 224.043C262.817 225.163 260.202 227.18 260.622 228.548C261.042 229.915 264.339 230.115 267.985 228.994Z" fill="#2F2E41"/>
<path d="M244.69 197.787C249.84 197.787 254.015 193.613 254.015 188.463C254.015 183.313 249.84 179.138 244.69 179.138C239.54 179.138 235.366 183.313 235.366 188.463C235.366 193.613 239.54 197.787 244.69 197.787Z" fill="white"/>
<path d="M244.69 191.571C246.407 191.571 247.798 190.179 247.798 188.463C247.798 186.746 246.407 185.354 244.69 185.354C242.974 185.354 241.582 186.746 241.582 188.463C241.582 190.179 242.974 191.571 244.69 191.571Z" fill="#3F3D56"/>
<path d="M213.308 178.79C208.304 170.006 212.107 158.408 221.802 152.885C231.497 147.362 243.412 150.005 248.416 158.788C253.421 167.572 247.591 173.17 237.896 178.693C228.201 184.216 218.312 187.573 213.308 178.79Z" fill="#77C9FF"/>
<path d="M197.401 207.3C197.401 224.761 187.022 230.857 174.218 230.857C173.921 230.857 173.625 230.854 173.329 230.847C172.736 230.834 172.148 230.806 171.568 230.767C160.012 229.949 151.034 223.539 151.034 207.3C151.034 190.496 172.509 169.291 174.122 167.722L174.125 167.719C174.187 167.658 174.218 167.629 174.218 167.629C174.218 167.629 197.401 189.84 197.401 207.3Z" fill="#77C9FF"/>
<path d="M173.373 228.186L181.852 216.338L173.352 229.487L173.329 230.847C172.736 230.834 172.148 230.806 171.568 230.767L172.482 213.298L172.475 213.162L172.49 213.137L172.576 211.487L164.055 198.306L172.603 210.25L172.623 210.6L173.314 197.402L166.018 183.781L173.403 195.085L174.122 167.722L174.124 167.629V167.719L174.004 189.297L181.268 180.742L173.975 191.155L173.783 202.973L180.564 191.631L173.754 204.711L173.647 211.281L183.492 195.496L173.61 213.573L173.373 228.186Z" fill="#3F3D56"/>
<path d="M288.574 214.582C288.574 233.603 277.268 240.244 263.319 240.244C262.996 240.244 262.673 240.241 262.351 240.233C261.704 240.22 261.064 240.189 260.432 240.146C247.843 239.255 238.063 232.272 238.063 214.582C238.063 196.276 261.457 173.176 263.214 171.466L263.217 171.463C263.285 171.397 263.319 171.365 263.319 171.365C263.319 171.365 288.574 195.562 288.574 214.582Z" fill="#77C9FF"/>
<path d="M262.399 237.334L271.636 224.427L262.376 238.752L262.351 240.233C261.705 240.22 261.065 240.189 260.432 240.146L261.428 221.116L261.42 220.968L261.437 220.94L261.531 219.143L252.248 204.784L261.56 217.795L261.582 218.177L262.334 203.799L254.386 188.96L262.431 201.275L263.214 171.466L263.217 171.365V171.463L263.087 194.969L270.999 185.651L263.054 196.994L262.845 209.868L270.233 197.513L262.814 211.762L262.697 218.919L273.422 201.723L262.657 221.416L262.399 237.334Z" fill="#3F3D56"/>
<path d="M247.792 211.6C248.805 209.463 244.109 205.114 237.301 201.885C230.494 198.657 224.154 197.772 223.141 199.909C222.127 202.046 226.824 206.395 233.631 209.624C240.438 212.852 246.778 213.737 247.792 211.6Z" fill="#2F2E41"/>
<path d="M37.8083 209.103C38.6882 206.908 33.7325 202.856 26.7394 200.053C19.7462 197.25 13.3638 196.757 12.4839 198.952C11.604 201.148 16.5597 205.2 23.5528 208.003C30.546 210.806 36.9284 211.298 37.8083 209.103Z" fill="#2F2E41"/>
</g>
<defs>
<clipPath id="clip0">
<rect width="387" height="268.656" fill="white"/>
</clipPath>
</defs>
</svg>
