<svg width="30" height="30" viewBox="0 0 30 30" fill="none" xmlns="http://www.w3.org/2000/svg">
<circle cx="15" cy="15" r="15" fill="#333333"/>
<path d="M6.97117 5.4H24.5L24.232 22.9168L19.9577 25.2L11.7815 25.053H11.5135L4.70001 19.9261L6.97117 5.4Z" fill="white"/>
<g clip-path="url(#clip0)">
<path d="M15.4988 0.900002C8.04448 0.900002 2 6.68284 2 13.8182C2 19.5269 5.86687 24.3684 11.2328 26.0781C11.9067 26.1938 12.1203 25.8129 12.1203 25.4703C12.1203 25.1625 12.1273 24.3055 12.1203 23.2271C8.36613 24.0067 7.58783 21.5252 7.58783 21.5252C6.97387 20.0324 6.09109 19.6358 6.09109 19.6358C4.86435 18.8338 6.18148 18.8506 6.18148 18.8506C7.535 18.9405 8.24991 20.1806 8.24991 20.1806C9.45435 22.1554 11.4089 21.5848 12.1778 21.2545C12.3023 20.421 12.6497 19.8493 13.036 19.5291C10.0378 19.2011 6.887 18.0946 6.887 13.1419C6.887 11.7322 7.41291 10.5796 8.27691 9.67536C8.13839 9.35072 7.67352 8.03532 8.40839 6.25711C8.40839 6.25711 9.54357 5.91 12.1203 7.58262C13.198 7.29505 14.3531 7.15239 15.5012 7.14677C16.6469 7.15239 17.802 7.29505 18.882 7.58262C21.4588 5.91112 22.5904 6.25711 22.5904 6.25711C23.3265 8.03532 22.8628 9.35072 22.7243 9.67536C23.5883 10.5796 24.113 11.7322 24.113 13.1419C24.113 18.107 20.9563 19.1977 17.9488 19.5156C18.4324 19.9167 18.8727 20.6917 18.8727 21.8971C18.8727 23.5124 18.8727 25.0491 18.8727 25.4737C18.8727 25.8197 19.091 26.2005 19.7766 26.0758C25.1367 24.365 29 19.5246 29 13.8182C29 6.68284 22.9567 0.900002 15.4988 0.900002Z" fill="#333333"/>
</g>
<defs>
<clipPath id="clip0">
<rect width="27" height="27" fill="white" transform="translate(2)"/>
</clipPath>
</defs>
</svg>
