<svg width="31" height="30" viewBox="0 0 31 30" fill="none" xmlns="http://www.w3.org/2000/svg">
<g clip-path="url(#clip0)">
<path d="M11.0146 11.9012C11.1796 11.615 11.3683 11.35 11.5833 11.1025V7.5H10.3333V11.9025L11.0146 11.9012Z" fill="#333333"/>
<path d="M15.3333 18.125C17.4044 18.125 19.0833 16.4461 19.0833 14.375C19.0833 12.3039 17.4044 10.625 15.3333 10.625C13.2622 10.625 11.5833 12.3039 11.5833 14.375C11.5833 16.4461 13.2622 18.125 15.3333 18.125Z" fill="#333333"/>
<path d="M12.8333 10.07C13.5721 9.64 14.4196 9.375 15.3333 9.375C17.1796 9.375 18.7758 10.3912 19.6421 11.8825L22.8333 11.8763V9.78875C22.8333 8.5275 21.8058 7.5 20.5421 7.5H12.8333V10.07ZM20.3333 8.75H21.5833V10H20.3333V8.75Z" fill="#333333"/>
<path d="M15.3333 0C7.06206 0 0.333313 6.72875 0.333313 15C0.333313 23.2712 7.06206 30 15.3333 30C23.6046 30 30.3333 23.2712 30.3333 15C30.3333 6.72875 23.6046 0 15.3333 0ZM24.0833 20.2075C24.0833 22.1613 22.4946 23.75 20.5421 23.75H10.1246C8.17206 23.75 6.58331 22.1613 6.58331 20.2075V9.79C6.58331 7.8375 8.17206 6.25 10.1246 6.25H20.5421C22.4946 6.25 24.0833 7.8375 24.0833 9.79V20.2075Z" fill="#333333"/>
<path d="M9.08331 11.905V7.7625C8.34456 8.1425 7.83331 8.90375 7.83331 9.79V11.9087L9.08331 11.905Z" fill="#333333"/>
</g>
<defs>
<clipPath id="clip0">
<rect width="30" height="30" fill="white" transform="translate(0.333313)"/>
</clipPath>
</defs>
</svg>
