<svg width="30" height="30" viewBox="0 0 30 30" fill="none" xmlns="http://www.w3.org/2000/svg">
<circle cx="15" cy="15" r="15" fill="#333333"/>
<path d="M11.5794 20.9376H8.45437V12.8126H11.5794V20.9376ZM10.0113 11.5626H9.9925C9.04812 11.5626 8.4375 10.8239 8.4375 10.012C8.4375 9.18136 9.0675 8.50449 10.0294 8.50449C10.9925 8.50449 11.5844 9.20324 11.6037 10.0339C11.6031 10.8457 10.9925 11.5626 10.0113 11.5626ZM17.2044 15.3126C16.5138 15.3126 15.9544 15.8726 15.9544 16.5626V20.9376H12.8294C12.8294 20.9376 12.8663 13.4376 12.8294 12.8126H15.9544V13.7407C15.9544 13.7407 16.9219 12.8389 18.4156 12.8389C20.2669 12.8389 21.5794 14.1789 21.5794 16.7789V20.9376H18.4544V16.5626C18.4544 15.8726 17.895 15.3126 17.2044 15.3126Z" fill="white"/>
</svg>
