<svg width="96" height="91" viewBox="0 0 96 91" fill="none" xmlns="http://www.w3.org/2000/svg">
<path d="M62.5178 61.418L50.613 76.4425C45.5525 82.8291 36.2824 83.901 29.8981 78.8423L22.1893 72.7342C18.2344 69.6005 16.1562 64.6539 16.6789 59.6348C17.6643 50.2187 20.9074 35.973 20.9074 35.973C21.0021 34.2532 22.322 32.8533 24.0307 32.6532C25.8642 32.4429 27.5548 33.6809 27.912 35.4953L28.3699 47.53L46.685 24.4153C48.2015 22.5014 50.9856 22.1788 52.8995 23.6953C54.8157 25.2137 55.1359 27.9959 53.6194 29.9098L42.6304 43.7786" stroke="#77C9FF" stroke-width="3.25" stroke-miterlimit="10" stroke-linecap="round" stroke-linejoin="round"/>
<path d="M46.2932 39.1558L57.2823 25.287C58.7988 23.3731 61.5828 23.0506 63.4967 24.5671C65.413 26.0854 65.7332 28.8677 64.2167 30.7816L53.2276 44.6504" stroke="#77C9FF" stroke-width="3.25" stroke-miterlimit="10" stroke-linecap="round" stroke-linejoin="round"/>
<path d="M49.5647 49.2733L60.5538 35.4045C62.0702 33.4906 64.8543 33.168 66.7682 34.6845C68.6844 36.2028 69.0047 38.9851 67.4882 40.899L56.4991 54.7678" stroke="#77C9FF" stroke-width="3.25" stroke-miterlimit="10" stroke-linecap="round" stroke-linejoin="round"/>
<path d="M53.7516 58.2348L61.9935 47.8332C63.5099 45.9193 66.294 45.5967 68.2079 47.1132C70.1241 48.6316 70.4444 51.4138 68.9279 53.3277L57.9388 67.1965" stroke="#77C9FF" stroke-width="3.25" stroke-miterlimit="10" stroke-linecap="round" stroke-linejoin="round"/>
<path d="M49.4397 7.55034C37.8497 8.2811 33.3668 12.3407 27.2513 20.6222" stroke="#77C9FF" stroke-width="2"/>
<path d="M48.1572 14.6245C40.2399 15.1237 37.1776 17.8969 33 23.5541" stroke="#77C9FF" stroke-width="2"/>
<path d="M73.8477 67.0432C83.5382 60.6435 85.4075 54.8918 86.5927 44.6654" stroke="#77C9FF" stroke-width="2"/>
<path d="M71.4408 60.2686C78.0606 55.8969 79.3375 51.9678 80.1472 44.982" stroke="#77C9FF" stroke-width="2"/>
</svg>
