<svg width="30" height="30" viewBox="0 0 30 30" fill="none" xmlns="http://www.w3.org/2000/svg">
<path d="M15 0C6.72875 0 0 6.72875 0 15C0 23.2712 6.72875 30 15 30C23.2712 30 30 23.2712 30 15C30 6.72875 23.2712 0 15 0ZM15 6.875C17.1863 6.875 19.1675 7.74375 20.6275 9.1475C19.2338 10.4788 17.6337 11.5212 15.9125 12.2787C14.8337 10.4963 13.435 8.89625 11.7412 7.56C12.7387 7.12125 13.84 6.875 15 6.875ZM10.5525 8.205L10.7475 8.3525C12.3675 9.585 13.7 11.0763 14.7375 12.74C13.0225 13.3388 11.2088 13.6688 9.34625 13.6688C8.57 13.6688 7.785 13.6137 7.0175 13.505C7.43 11.2913 8.7375 9.395 10.5525 8.205ZM6.8875 14.7475C7.70125 14.8588 8.5275 14.9175 9.34875 14.9175C11.4313 14.9175 13.46 14.5375 15.3675 13.8425C15.6175 14.3238 15.835 14.8187 16.035 15.3237C13.1613 16.0637 10.5062 17.5125 8.30875 19.6063C7.36 18.2288 6.8325 16.59 6.8875 14.7475ZM17.1362 22.8312C16.455 23.0175 15.7413 23.125 15 23.125C12.6737 23.125 10.5813 22.1425 9.1 20.575L9.11625 20.5588C11.1925 18.5625 13.7175 17.1938 16.4475 16.5087C16.9275 18.0575 17.2 19.6813 17.2 21.3575C17.2013 21.945 17.175 22.3137 17.1362 22.8312ZM18.4137 22.3675C18.4325 22.0312 18.45 21.6987 18.45 21.3587C18.45 19.5925 18.1663 17.8813 17.6725 16.2475C18.5787 16.0925 19.4988 16.0012 20.4338 16.0012C21.1437 16.0012 22.1075 16.0812 23.0112 16.215L23.0238 16.2162C22.6125 18.955 20.84 21.2387 18.4137 22.3675ZM20.435 14.7512C19.365 14.7512 18.3088 14.8562 17.2738 15.0437C17.055 14.4712 16.8137 13.9125 16.535 13.3675C18.3287 12.5638 19.9975 11.4712 21.4575 10.0825C22.4937 11.44 23.1175 13.1313 23.125 14.9688C22.6275 14.8975 21.5 14.7512 20.435 14.7512Z" fill="#213042"/>
</svg>
