<svg width="30" height="30" viewBox="0 0 30 30" fill="none" xmlns="http://www.w3.org/2000/svg">
<circle cx="15" cy="15" r="15" fill="#213042"/>
<path d="M6.97117 5.3999H24.5L24.232 22.9167L19.9577 25.1999L11.7815 25.0529H11.5135L4.70001 19.926L6.97117 5.3999Z" fill="#F6BC42"/>
<g clip-path="url(#clip0)">
<path d="M15.4988 0.899902C8.04448 0.899902 2 6.68274 2 13.8181C2 19.5268 5.86687 24.3683 11.2328 26.078C11.9067 26.1937 12.1203 25.8128 12.1203 25.4702C12.1203 25.1624 12.1273 24.3054 12.1203 23.227C8.36613 24.0066 7.58783 21.5251 7.58783 21.5251C6.97387 20.0323 6.09109 19.6357 6.09109 19.6357C4.86435 18.8337 6.18148 18.8505 6.18148 18.8505C7.535 18.9404 8.24991 20.1805 8.24991 20.1805C9.45435 22.1553 11.4089 21.5847 12.1778 21.2544C12.3023 20.4209 12.6497 19.8492 13.036 19.529C10.0378 19.201 6.887 18.0945 6.887 13.1418C6.887 11.7321 7.41291 10.5795 8.27691 9.67526C8.13839 9.35062 7.67352 8.03522 8.40839 6.25701C8.40839 6.25701 9.54357 5.9099 12.1203 7.58252C13.198 7.29495 14.3531 7.15229 15.5012 7.14667C16.6469 7.15229 17.802 7.29495 18.882 7.58252C21.4588 5.91102 22.5904 6.25701 22.5904 6.25701C23.3265 8.03522 22.8628 9.35062 22.7243 9.67526C23.5883 10.5795 24.113 11.7321 24.113 13.1418C24.113 18.1069 20.9563 19.1976 17.9488 19.5155C18.4324 19.9166 18.8727 20.6916 18.8727 21.897C18.8727 23.5123 18.8727 25.049 18.8727 25.4736C18.8727 25.8196 19.091 26.2004 19.7766 26.0757C25.1367 24.3649 29 19.5245 29 13.8181C29 6.68274 22.9567 0.899902 15.4988 0.899902Z" fill="#213042"/>
</g>
<defs>
<clipPath id="clip0">
<rect width="27" height="27" fill="white" transform="translate(2)"/>
</clipPath>
</defs>
</svg>
