<svg width="30" height="30" viewBox="0 0 30 30" fill="none" xmlns="http://www.w3.org/2000/svg">
<path d="M10.6813 11.9012C10.8463 11.615 11.035 11.35 11.25 11.1025V7.5H10V11.9025L10.6813 11.9012Z" fill="#213042"/>
<path d="M15 18.125C17.0711 18.125 18.75 16.4461 18.75 14.375C18.75 12.3039 17.0711 10.625 15 10.625C12.9289 10.625 11.25 12.3039 11.25 14.375C11.25 16.4461 12.9289 18.125 15 18.125Z" fill="#213042"/>
<path d="M12.5 10.07C13.2388 9.64 14.0863 9.375 15 9.375C16.8463 9.375 18.4425 10.3912 19.3088 11.8825L22.5 11.8763V9.78875C22.5 8.5275 21.4725 7.5 20.2088 7.5H12.5V10.07ZM20 8.75H21.25V10H20V8.75Z" fill="#213042"/>
<path d="M15 0C6.72875 0 0 6.72875 0 15C0 23.2712 6.72875 30 15 30C23.2712 30 30 23.2712 30 15C30 6.72875 23.2712 0 15 0ZM23.75 20.2075C23.75 22.1613 22.1612 23.75 20.2087 23.75H9.79125C7.83875 23.75 6.25 22.1613 6.25 20.2075V9.79C6.25 7.8375 7.83875 6.25 9.79125 6.25H20.2087C22.1612 6.25 23.75 7.8375 23.75 9.79V20.2075Z" fill="#213042"/>
<path d="M8.75 11.9052V7.7627C8.01125 8.1427 7.5 8.90394 7.5 9.79019V11.9089L8.75 11.9052Z" fill="#213042"/>
</svg>
