<svg width="30" height="30" viewBox="0 0 30 30" fill="none" xmlns="http://www.w3.org/2000/svg">
<circle cx="15" cy="15" r="15" fill="#213042"/>
<path d="M11.5794 20.9375H8.45437V12.8125H11.5794V20.9375ZM10.0113 11.5625H9.9925C9.04812 11.5625 8.4375 10.8238 8.4375 10.0119C8.4375 9.18127 9.0675 8.50439 10.0294 8.50439C10.9925 8.50439 11.5844 9.20314 11.6037 10.0338C11.6031 10.8456 10.9925 11.5625 10.0113 11.5625ZM17.2044 15.3125C16.5138 15.3125 15.9544 15.8725 15.9544 16.5625V20.9375H12.8294C12.8294 20.9375 12.8663 13.4375 12.8294 12.8125H15.9544V13.7406C15.9544 13.7406 16.9219 12.8388 18.4156 12.8388C20.2669 12.8388 21.5794 14.1788 21.5794 16.7788V20.9375H18.4544V16.5625C18.4544 15.8725 17.895 15.3125 17.2044 15.3125Z" fill="#F6BC42"/>
</svg>
