<svg width="278" height="278" viewBox="0 0 278 278" fill="none" xmlns="http://www.w3.org/2000/svg">
<path d="M88.6539 75.7892C87.2786 73.7367 86.6605 71.788 86.7997 69.9432C86.9335 68.0903 87.7832 66.6392 89.349 65.59C90.9553 64.5137 92.5892 64.2417 94.2508 64.774L93.3818 63.2404L95.4384 61.8623L104.049 74.7128C105.191 76.4164 105.583 78.0988 105.227 79.76C104.879 81.4157 103.853 82.8144 102.149 83.956C101.2 84.592 100.135 85.0116 98.955 85.2148C97.7745 85.4181 96.7085 85.3271 95.7569 84.9421L96.02 82.8085C97.7846 83.3542 99.3645 83.1595 100.76 82.2245C101.855 81.4906 102.5 80.6115 102.696 79.5872C102.899 78.5575 102.626 77.4829 101.876 76.3633L101.117 75.2316C100.912 76.8734 100.031 78.2162 98.4737 79.26C96.9323 80.2928 95.2671 80.5094 93.478 79.9096C91.6971 79.3044 90.0891 77.9309 88.6539 75.7892ZM91.0886 74.5281C92.0834 76.0127 93.1705 76.977 94.3497 77.4212C95.5235 77.8572 96.658 77.7082 97.7533 76.9743C99.173 76.023 99.7833 74.6795 99.5842 72.9438L95.556 66.9323C94.0238 66.1369 92.5681 66.2013 91.189 67.1255C90.0937 67.8594 89.5233 68.8588 89.4775 70.1238C89.4317 71.3887 89.9688 72.8568 91.0886 74.5281Z" fill="#213042"/>
<path d="M123.201 54.4988C122.786 54.5304 122.346 54.6034 121.882 54.7177C120.156 55.1425 119.166 56.1656 118.911 57.7871L121.599 68.7112L118.968 69.3587L115.18 53.9683L117.741 53.3382L118.221 55.1057C118.745 53.5184 119.8 52.5299 121.383 52.1401C121.895 52.0141 122.3 51.9848 122.599 52.0522L123.201 54.4988Z" fill="#213042"/>
<path d="M140.065 58.2842C140.232 56.7405 140.683 55.3847 141.418 54.2168C142.163 53.0499 143.111 52.1898 144.261 51.6365C145.421 51.0842 146.695 50.8832 148.084 51.0334C150.229 51.2655 151.882 52.1957 153.042 53.824C154.211 55.4534 154.662 57.5012 154.396 59.9672L154.375 60.1566C154.209 61.6906 153.764 63.0372 153.039 64.1965C152.325 65.3471 151.383 66.2028 150.213 66.7638C149.052 67.3258 147.762 67.5301 146.345 67.3767C144.209 67.1456 142.556 66.2154 141.387 64.586C140.227 62.9577 139.78 60.9202 140.044 58.4735L140.065 58.2842ZM142.739 58.8977C142.55 60.6453 142.801 62.0918 143.492 63.2373C144.193 64.3838 145.224 65.0306 146.583 65.1776C147.952 65.3257 149.097 64.9094 150.018 63.9286C150.941 62.9381 151.506 61.4768 151.716 59.5447C151.902 57.8165 151.641 56.3737 150.931 55.2165C150.232 54.0506 149.203 53.3941 147.844 53.247C146.514 53.1031 145.384 53.5162 144.454 54.4862C143.524 55.4563 142.952 56.9268 142.739 58.8977Z" fill="#213042"/>
<path d="M176.8 73.0387L184.878 63.5107L187.311 64.7061L176.178 76.895L174.206 75.9257L176.047 63.4464L167.383 72.5722L165.411 71.603L168.275 55.3497L170.694 56.5387L168.26 68.5635L176.807 59.5433L178.765 60.5061L176.8 73.0387Z" fill="#213042"/>
<path d="M205.348 75.7693L202.58 78.4269L204.629 80.5617L203.117 82.0122L201.068 79.8774L193.977 86.6837C193.519 87.1233 193.265 87.5498 193.215 87.9631C193.172 88.3698 193.371 88.802 193.81 89.26C194.027 89.4855 194.366 89.7549 194.83 90.0683L193.244 91.5898C192.61 91.2107 192.059 90.7781 191.593 90.292C190.754 89.4184 190.386 88.506 190.489 87.555C190.591 86.6039 191.128 85.6618 192.1 84.7286L199.192 77.9223L197.193 75.8404L198.705 74.3899L200.703 76.4718L203.472 73.8142L205.348 75.7693Z" fill="#213042"/>
<path d="M216.028 101.211C217.862 101.714 219.167 102.845 219.945 104.605C221.298 107.669 220.251 109.978 216.806 111.532L207.225 115.763L206.13 113.283L215.725 109.047C216.766 108.576 217.432 107.994 217.723 107.299C218.019 106.614 217.947 105.775 217.509 104.784C217.154 103.98 216.628 103.369 215.931 102.951C215.234 102.533 214.462 102.308 213.616 102.276L203.284 106.838L202.189 104.359L222.772 95.2701L223.867 97.7491L216.028 101.211Z" fill="#213042"/>
<path d="M219.349 159.443C220.164 159.679 220.76 160.132 221.136 160.8C221.509 161.478 221.57 162.248 221.32 163.111C221.072 163.964 220.613 164.583 219.942 164.968C219.281 165.356 218.514 165.423 217.641 165.17L217.121 165.019C216.305 164.783 215.714 164.332 215.348 163.666C214.981 163.001 214.926 162.227 215.182 161.346C215.435 160.473 215.895 159.849 216.564 159.474C217.238 159.11 217.989 159.048 218.814 159.288L219.349 159.443Z" fill="#213042"/>
<path d="M178.107 203.947C178.515 204.555 179.062 204.871 179.747 204.893C180.429 204.93 181.424 204.686 182.731 204.163C184.03 203.646 185.13 203.332 186.032 203.221C186.926 203.116 187.692 203.19 188.332 203.443C188.964 203.702 189.497 204.155 189.932 204.804C190.655 205.883 190.812 207.101 190.404 208.456C189.987 209.816 189.069 210.972 187.649 211.924C186.156 212.924 184.689 213.349 183.248 213.198C181.799 213.052 180.672 212.379 179.867 211.178L182.131 209.662C182.544 210.278 183.164 210.633 183.99 210.726C184.808 210.824 185.615 210.607 186.41 210.074C187.229 209.525 187.75 208.917 187.974 208.25C188.197 207.583 188.116 206.962 187.73 206.386C187.365 205.842 186.876 205.577 186.261 205.589C185.646 205.601 184.695 205.857 183.407 206.356C182.111 206.86 180.997 207.171 180.065 207.29C179.134 207.408 178.336 207.332 177.672 207.06C177.005 206.801 176.435 206.319 175.962 205.613C175.174 204.437 175.011 203.177 175.474 201.832C175.942 200.496 176.926 199.325 178.427 198.319C179.482 197.612 180.54 197.174 181.601 197.003C182.662 196.833 183.647 196.925 184.555 197.281C185.461 197.65 186.175 198.224 186.696 199.002L184.445 200.511C183.899 199.784 183.197 199.384 182.338 199.313C181.476 199.256 180.583 199.537 179.658 200.157C178.807 200.727 178.239 201.354 177.957 202.038C177.671 202.734 177.721 203.371 178.107 203.947Z" fill="#213042"/>
<path d="M155.113 208.458C157.199 207.945 159.065 208.21 160.709 209.253C162.356 210.306 163.462 211.98 164.027 214.275L164.146 214.759C164.522 216.285 164.567 217.717 164.283 219.055C163.991 220.404 163.407 221.543 162.53 222.473C161.645 223.415 160.591 224.036 159.368 224.337C157.367 224.83 155.65 224.553 154.216 223.508C152.782 222.463 151.763 220.713 151.158 218.257L150.889 217.161L161.315 214.596C160.904 213.088 160.161 211.968 159.086 211.237C158.003 210.518 156.808 210.319 155.499 210.641C154.57 210.87 153.83 211.253 153.278 211.791C152.727 212.329 152.286 212.971 151.957 213.716L150.041 212.859C150.843 210.56 152.534 209.093 155.113 208.458ZM158.836 222.175C159.898 221.914 160.694 221.306 161.223 220.351C161.754 219.405 161.934 218.215 161.762 216.779L154.052 218.676L154.101 218.875C154.506 220.193 155.121 221.138 155.945 221.71C156.772 222.291 157.736 222.446 158.836 222.175Z" fill="#213042"/>
<path d="M130.249 209.886C132.385 210.117 134.048 211.004 135.236 212.547C136.424 214.1 136.89 216.051 136.636 218.401L136.583 218.896C136.414 220.459 135.967 221.82 135.242 222.98C134.507 224.148 133.568 225.018 132.425 225.592C131.272 226.175 130.069 226.398 128.817 226.263C126.768 226.041 125.249 225.194 124.259 223.722C123.269 222.249 122.91 220.256 123.182 217.741L123.303 216.62L133.978 217.774C134.108 216.217 133.792 214.911 133.032 213.856C132.261 212.81 131.206 212.214 129.866 212.07C128.914 211.967 128.088 212.074 127.385 212.391C126.683 212.707 126.05 213.16 125.485 213.747L123.978 212.287C125.518 210.401 127.609 209.601 130.249 209.886ZM129.056 224.049C130.143 224.167 131.099 223.867 131.923 223.151C132.746 222.444 133.322 221.387 133.651 219.979L125.758 219.125L125.736 219.329C125.666 220.706 125.92 221.804 126.499 222.623C127.078 223.452 127.93 223.927 129.056 224.049Z" fill="#213042"/>
<path d="M104.647 210.368L106.954 209.527L109.41 204.531L111.842 205.727L101.917 225.92L99.4846 224.724L105.487 212.511L103.417 213.436L96.6864 215.939L93.7285 214.485L102.184 211.263L100.076 199.944L102.928 201.346L104.647 210.368Z" fill="#213042"/>
<path d="M86.4323 187.836C87.92 189.386 88.6232 191.134 88.5418 193.08C88.4534 195.033 87.5567 196.828 85.8517 198.464L85.4924 198.809C84.3581 199.898 83.1408 200.653 81.8406 201.075C80.5266 201.497 79.2475 201.561 78.0034 201.266C76.7455 200.971 75.6804 200.369 74.8081 199.46C73.3812 197.973 72.7619 196.348 72.95 194.584C73.1381 192.82 74.1445 191.062 75.9693 189.31L76.7831 188.529L84.2183 196.276C85.3185 195.165 85.9164 193.962 86.0121 192.666C86.0939 191.369 85.6682 190.234 84.735 189.262C84.0723 188.572 83.3701 188.122 82.6285 187.913C81.8868 187.705 81.1111 187.644 80.3012 187.731L80.085 185.644C82.4771 185.189 84.5929 185.92 86.4323 187.836ZM76.4144 197.918C77.1718 198.707 78.0963 199.092 79.188 199.073C80.2726 199.061 81.3936 198.621 82.551 197.754L77.0533 192.026L76.9053 192.168C75.966 193.178 75.455 194.183 75.3723 195.183C75.2826 196.189 75.63 197.101 76.4144 197.918Z" fill="#213042"/>
<path d="M58.4216 168.481C58.5247 168.883 58.6729 169.304 58.8662 169.741C59.5842 171.367 60.7637 172.165 62.4048 172.134L72.6961 167.59L73.7908 170.069L59.2919 176.471L58.2268 174.059L59.884 173.279C58.2297 173.038 57.0731 172.172 56.4143 170.68C56.2013 170.198 56.1021 169.804 56.1167 169.498L58.4216 168.481Z" fill="#213042"/>
<path d="M57.9158 117.893C57.0998 117.656 56.504 117.204 56.1284 116.535C55.7555 115.858 55.6942 115.088 55.9445 114.225C56.192 113.371 56.6512 112.752 57.3221 112.367C57.9837 111.979 58.7506 111.912 59.6228 112.165L60.1434 112.316C60.9593 112.553 61.5504 113.004 61.9167 113.669C62.2829 114.335 62.3382 115.108 62.0824 115.99C61.8295 116.862 61.3689 117.486 60.7007 117.862C60.0258 118.225 59.2757 118.287 58.4504 118.048L57.9158 117.893Z" fill="#213042"/>
</svg>
